<?xml version="1.0" encoding="UTF-8" standalone="no"?>
<svg width="100%" height="100%" viewBox="0 0 4620 4153" xmlns="http://www.w3.org/2000/svg" style="fill-rule:evenodd;clip-rule:evenodd;stroke-linejoin:round;stroke-miterlimit:2;">
    <g transform="matrix(1,0,0,1,-2109,-2343)">
        <g transform="matrix(4.16667,0,0,4.16667,0,0)">
            <path d="M863.129,853.211C895.441,853.227 921.617,879.398 921.625,911.711C921.617,944.027 895.441,970.199 863.129,970.215C830.816,970.199 804.637,944.027 804.629,911.711C804.641,879.398 830.816,853.223 863.129,853.211ZM1045.3,723.918L1010.91,678.906L1013.07,704.559C1013.53,709.969 1011.01,715.156 1006.48,718.148C1001.97,721.129 996.227,721.406 991.441,718.879L991.441,718.883L991.43,718.879L991.25,718.785L990.305,718.324C989.418,717.898 988.02,717.25 986.145,716.457C982.398,714.863 976.758,712.68 969.516,710.48C955.035,706.086 934.172,701.641 909.199,701.645C883.965,701.676 854.574,706.141 822.82,719.828C825.082,720.211 827.332,720.617 829.559,721.074C838.344,722.941 846.68,725.266 854.23,729.449C859.242,732.273 862.152,737.699 861.727,743.434C861.301,749.168 857.629,754.105 852.254,756.156L852.238,756.164L852.02,756.246L850.996,756.668C850.055,757.051 848.613,757.664 846.727,758.504C842.949,760.195 837.391,762.82 830.48,766.465C816.668,773.762 797.473,785.164 776.402,801.363C740.805,828.73 700.012,869.715 670.047,927.789C673.395,926.371 676.648,924.992 679.625,923.742C685.492,921.27 690.207,919.309 692.797,918.277C693.523,917.992 693.988,917.813 694.813,917.527C694.809,917.527 694.801,917.535 694.797,917.535L694.867,917.508C694.844,917.516 694.832,917.52 694.813,917.527C695.871,917.191 697.293,916.742 699.719,916.715C701.375,916.715 703.625,916.984 706.078,918.129C708.531,919.234 710.922,921.348 712.301,923.57C713.246,925.035 713.813,926.477 714.148,927.715C714.602,929.379 714.688,930.684 714.691,931.727C714.641,934.41 714.195,935.578 713.926,936.559C713.625,937.5 713.367,938.109 713.125,938.66C712.645,939.734 712.223,940.531 711.762,941.398C710.844,943.098 709.754,944.973 708.426,947.328C705.777,952.004 702.191,958.449 698.105,966.863C692.91,977.563 686.926,991.438 681.285,1008.46C688.492,1004.88 696.184,1001.16 703.434,997.879C711.441,994.27 718.801,991.18 725.137,989.184C730.227,987.594 735.801,988.875 739.684,992.531C743.566,996.184 745.184,1001.67 743.902,1006.84L743.895,1006.89L743.836,1007.13L743.59,1008.19C743.371,1009.15 743.051,1010.61 742.66,1012.49C741.883,1016.27 740.828,1021.79 739.777,1028.58C737.664,1042.17 735.563,1060.87 735.566,1080.88C735.563,1095.38 736.672,1110.55 739.566,1124.89C740.461,1129.34 741.598,1133.66 742.848,1137.91C745.516,1133.38 748.508,1128.45 751.848,1123.18C767.152,1099.09 789.277,1068.46 817.313,1041.89C836.02,1024.2 857.395,1008.27 881.441,997.605C913.563,983.422 946.98,975.898 976.828,974.539C976.414,966.879 975.43,956.664 973.168,945.305C969.746,928.043 963.371,908.359 952.199,891.313C944.746,879.926 935.25,869.684 922.895,861.582C906.418,850.82 884.68,843.555 854.422,843.516C831.527,843.512 803.797,847.793 770.504,858.23C762.711,860.668 754.414,856.328 751.973,848.535C749.531,840.738 753.871,832.441 761.664,830.008C797.203,818.875 827.84,813.941 854.422,813.938C889.469,813.898 917.566,822.684 939.109,836.848C960.68,850.977 975.422,870.117 985.32,889.605C1001.99,922.609 1005.68,956.715 1006.47,975.445C1015.27,976.457 1023.61,978.094 1031.24,980.602C1042.59,984.379 1052.79,989.977 1060.37,998.406L1060.37,729.32C1054.89,730.578 1048.94,728.672 1045.3,723.918Z" style="fill:rgb(44,48,50);fill-rule:nonzero;"/>
            <path d="M758.375,777.918C775.313,764.902 791.105,754.77 804.293,747.16C804.027,747.133 803.758,747.094 803.492,747.07C788.992,745.586 775.793,745.402 773.105,745.387L772.609,745.387C766.086,745.387 760.371,741.152 758.465,734.918C756.563,728.68 758.938,721.977 764.344,718.332C812.699,685.699 859.559,674.031 898.629,672.328C897.172,652.508 892.859,637.852 887.352,627.113C880.527,613.887 872.016,606.125 863.477,601.008C857.781,597.625 852.035,595.512 846.918,594.211C840.113,592.473 834.453,592.219 831.961,592.219C831.133,592.219 830.652,592.246 830.613,592.246C829.625,592.316 828.789,592.297 827.801,592.176L827.801,592.18L827.664,592.164L826.77,592.094C825.914,592.035 824.559,591.969 822.797,591.969C817.586,591.961 808.906,592.57 799.402,595.492C789.871,598.426 779.594,603.551 770.324,612.691C764.137,618.809 758.316,626.766 753.469,637.508C748.051,649.547 741.004,659.406 733.051,667.191C725.102,674.992 716.297,680.699 707.492,684.773C689.84,692.922 672.328,694.723 659.359,694.746C646.922,694.738 638.531,693.027 637.82,692.887L637.477,692.813L637.477,692.809L637.242,692.758L636.051,692.523C634.953,692.316 633.273,692.027 631.129,691.73C626.84,691.141 620.68,690.547 613.613,690.547C602.547,690.527 589.305,692.059 577.434,696.871C565.508,701.75 555.004,709.391 547.18,722.875C541.988,731.91 537.965,743.824 536.363,759.891C536.086,762.727 535.949,765.48 535.949,768.148C535.957,778.266 537.844,787.258 541.172,795.598C544.504,803.922 549.324,811.598 555.336,818.719C567.316,832.949 584.172,844.793 601.598,853.949C626.191,866.938 651.613,874.492 664.996,877.91C693.969,833.965 728.027,801.238 758.375,777.918Z" style="fill:rgb(44,48,50);fill-rule:nonzero;"/>
            <path d="M783.484,1288.18C783.5,1306.39 787.723,1321.2 794.059,1333.68C800.402,1346.14 808.98,1356.25 817.801,1364.23C823.816,1369.7 829.926,1374.11 835.391,1377.58C839.367,1339.25 852.895,1306.52 871.637,1279.93C894.129,1247.97 923.82,1224.68 953.477,1209.19C973.27,1198.87 993.066,1192 1011.13,1188.43C1025.3,1185.64 1034.23,1181.73 1039.49,1178.18C1042.83,1175.89 1044.75,1173.88 1045.96,1172.11C1045.73,1170.31 1045.59,1168.54 1045.59,1166.87C1045.59,1165.82 1045.68,1164.86 1045.75,1163.88C1030.41,1162.76 1016.06,1158.78 1003.58,1152.41C988.797,1144.85 976.504,1133.93 968.801,1120.2C963.68,1111.07 960.703,1100.64 960.715,1089.74C960.703,1078.84 963.68,1068.42 968.801,1059.29C973.922,1050.14 981.125,1042.23 989.703,1035.74C1002.71,1025.93 1018.9,1019.27 1036.76,1016.59C1035.06,1015.06 1032.92,1013.53 1030.13,1012.08C1020.75,1007.1 1005.07,1003.77 986.355,1003.83C958.926,1003.8 925.121,1010.59 893.414,1024.65C874.098,1033.19 855.766,1046.46 839.238,1061.88C822.707,1077.28 807.984,1094.78 795.695,1111.44C771.133,1144.71 756.289,1174.59 754.766,1177.73C742.438,1206.01 738.418,1235.75 738.43,1262.07C738.418,1275.57 739.473,1288.14 740.941,1299.08C741.324,1298.53 741.711,1297.95 742.09,1297.41C750.352,1285.86 757.742,1278.24 758.078,1277.88C762.273,1273.56 768.664,1272.21 774.246,1274.47C779.832,1276.74 783.484,1282.15 783.484,1288.18Z" style="fill:rgb(199,188,172);fill-rule:nonzero;"/>
            <path d="M779.309,1298.48" style="fill:rgb(199,188,172);fill-rule:nonzero;"/>
            <path d="M1016.86,1217.44C994.348,1221.86 966.613,1233.09 941.359,1251.31C916.043,1269.54 893.176,1294.59 878.953,1326.72C869.465,1348.17 863.734,1372.82 863.727,1401.27C863.727,1406.11 861.371,1410.63 857.395,1413.39C853.418,1416.17 848.367,1416.82 843.824,1415.14C843.402,1414.98 839.664,1413.57 833.984,1410.73C837.105,1420.49 841.941,1431.07 849.273,1440.29C851.984,1443.7 855.035,1446.93 858.465,1449.94C859.082,1446.09 859.82,1442.08 860.738,1438.09C862.094,1432.32 863.715,1426.66 866.227,1421.29C868.832,1415.75 874.582,1412.4 880.68,1412.84C886.777,1413.29 891.969,1417.44 893.75,1423.29L893.754,1423.3L893.766,1423.34L893.855,1423.63L894.289,1424.94C894.691,1426.13 895.316,1427.91 896.168,1430.16C897.875,1434.65 900.5,1441 904.055,1448.14C911.133,1462.44 922.094,1479.8 936.102,1491.93C940.234,1495.52 944.586,1498.63 949.164,1501.2C948.859,1493.23 948.613,1483.91 948.613,1474.48C948.617,1464.54 948.879,1454.51 949.684,1445.59C950.297,1438.83 955.477,1433.33 962.188,1432.31C968.898,1431.29 975.477,1435 978.078,1441.27L978.074,1441.27L978.09,1441.31L978.211,1441.59L978.77,1442.86C979.289,1444.01 980.082,1445.73 981.156,1447.91C983.305,1452.27 986.566,1458.45 990.875,1465.5C999.48,1479.6 1012.38,1497.08 1028.56,1510.38C1038.14,1518.29 1048.79,1524.7 1060.37,1528.52L1060.37,1199.48C1050.46,1207.49 1036.44,1213.56 1016.86,1217.44Z" style="fill:rgb(169,161,151);fill-rule:nonzero;"/>
            <path d="M1565.47,711.23C1556.06,701.387 1544.13,695.941 1531.69,693.086C1523.44,691.199 1515.08,690.543 1507.71,690.547C1494.47,690.531 1484.46,692.668 1483.84,692.809L1483.84,692.813L1483.5,692.887C1482.79,693.027 1474.39,694.738 1461.96,694.746C1452.22,694.738 1439.97,693.699 1426.97,689.77C1414,685.84 1400.21,678.906 1388.27,667.191C1380.32,659.406 1373.27,649.543 1367.86,637.508C1363,626.766 1357.19,618.809 1351,612.695C1344.8,606.586 1338.2,602.301 1331.64,599.219C1318.55,593.066 1305.49,591.945 1298.52,591.969C1295.44,591.969 1293.59,592.168 1293.52,592.18L1293.52,592.176C1292.53,592.297 1291.7,592.316 1290.71,592.246L1290.53,592.242L1289.36,592.219C1286.55,592.215 1279.75,592.551 1271.79,594.934C1263.81,597.324 1254.78,601.645 1246.63,609.645C1241.17,615.004 1236.02,622.047 1231.77,631.746C1227.32,641.934 1223.93,655.203 1222.67,672.328C1261.75,674.027 1308.62,685.695 1356.98,718.332C1362.39,721.977 1364.76,728.68 1362.86,734.918C1360.95,741.152 1355.24,745.387 1348.71,745.387L1348.45,745.387L1347.54,745.391C1346.73,745.402 1345.53,745.422 1344,745.457C1340.94,745.535 1336.6,745.68 1331.56,745.977C1327.14,746.234 1322.14,746.641 1317.05,747.176C1330.24,754.785 1346.02,764.914 1362.95,777.918C1393.29,801.238 1427.35,833.965 1456.32,877.91C1456.45,877.875 1456.57,877.852 1456.7,877.816C1463.14,876.164 1472.24,873.586 1482.65,869.934C1503.48,862.66 1529.48,850.941 1549.69,834.512C1563.2,823.566 1574.01,810.727 1579.99,795.992C1583.42,787.547 1585.36,778.426 1585.37,768.148C1585.37,765.48 1585.23,762.727 1584.96,759.891C1582.5,735.762 1574.84,721.109 1565.47,711.23Z" style="fill:rgb(18,22,26);fill-rule:nonzero;"/>
            <path d="M1258.2,970.215C1225.88,970.199 1199.71,944.027 1199.7,911.711C1199.71,879.398 1225.88,853.223 1258.2,853.211C1290.51,853.227 1316.68,879.398 1316.7,911.711C1316.68,944.027 1290.51,970.199 1258.2,970.215ZM1346.9,802.898C1305.2,770.406 1270.32,756.633 1269.08,756.164L1269.07,756.156C1263.69,754.105 1260.02,749.168 1259.59,743.434C1259.17,737.699 1262.08,732.273 1267.09,729.449C1274.64,725.266 1282.98,722.941 1291.77,721.074C1294.04,720.602 1296.35,720.285 1298.66,719.902C1266.85,706.156 1237.39,701.676 1212.12,701.645C1166.05,701.605 1133.87,716.863 1130.22,718.711L1129.88,718.883L1129.88,718.879C1125.09,721.406 1119.35,721.129 1114.83,718.148C1110.31,715.156 1107.79,709.969 1108.25,704.559L1110.42,678.906L1076.02,723.918C1072.32,728.758 1066.22,730.668 1060.66,729.277C1060.56,729.301 1060.46,729.301 1060.37,729.32L1060.37,998.406C1060.48,998.527 1060.6,998.641 1060.71,998.762C1065.41,993.441 1071.15,989.172 1077.53,985.852C1088.32,980.285 1100.95,976.984 1114.84,975.402C1115.22,966.383 1116.3,953.844 1119.14,939.535C1123.1,919.734 1130.39,896.551 1144.37,875.133C1153.68,860.875 1166.05,847.434 1182.21,836.848C1203.75,822.684 1231.85,813.898 1266.9,813.938C1293.48,813.941 1324.11,818.875 1359.66,830.008C1367.45,832.441 1371.79,840.738 1369.35,848.535C1366.91,856.328 1358.61,860.668 1350.81,858.227C1317.52,847.793 1289.8,843.512 1266.9,843.516C1236.64,843.555 1214.9,850.82 1198.43,861.582C1181.98,872.367 1170.51,887.023 1162.37,903.02C1149.17,928.766 1145.39,957.836 1144.47,974.539C1174.33,975.895 1207.75,983.418 1239.88,997.605C1263.93,1008.27 1285.3,1024.2 1304,1041.89C1322.71,1059.61 1338.75,1079.12 1351.93,1097.3C1362.83,1112.36 1371.73,1126.46 1378.47,1137.91C1379.73,1133.66 1380.86,1129.34 1381.75,1124.89C1384.64,1110.55 1385.76,1095.38 1385.76,1080.88C1385.78,1042.09 1377.8,1008.32 1377.43,1006.89L1377.41,1006.84C1376.13,1001.67 1377.76,996.184 1381.64,992.531C1385.52,988.875 1391.1,987.594 1396.18,989.184C1402.52,991.18 1409.88,994.27 1417.89,997.879C1425.17,1001.18 1432.82,1004.89 1440.04,1008.47C1436.21,996.938 1432.23,986.816 1428.45,978.191C1421.45,962.273 1415.22,951.43 1411.56,944.973C1410.49,943.086 1409.64,941.605 1408.84,940.023C1408.41,939.121 1407.98,938.328 1407.39,936.559C1407.13,935.578 1406.68,934.41 1406.63,931.727C1406.64,930.555 1406.73,929.047 1407.36,927.086C1407.95,925.168 1409.25,922.727 1411.36,920.754C1412.75,919.441 1414.44,918.414 1416.04,917.781C1418.2,916.926 1420.12,916.715 1421.6,916.715C1424.04,916.742 1425.46,917.195 1426.5,917.523L1426.45,917.504C1427.32,917.801 1427.77,917.988 1428.52,918.277C1429.23,918.563 1430.06,918.898 1431.03,919.293C1432.97,920.086 1435.46,921.121 1438.33,922.328C1442.13,923.922 1446.63,925.816 1451.28,927.793C1421.87,870.789 1382.03,830.258 1346.9,802.898Z" style="fill:rgb(18,22,26);fill-rule:nonzero;"/>
            <path d="M1366.55,1177.71L1366.38,1177.37C1366.15,1176.91 1365.8,1176.2 1365.33,1175.28C1364.39,1173.41 1362.96,1170.66 1361.08,1167.2C1357.31,1160.24 1351.72,1150.4 1344.5,1139.03C1330.08,1116.29 1309.11,1087.43 1283.67,1063.38C1266.73,1047.32 1247.85,1033.46 1227.91,1024.65C1196.2,1010.59 1162.39,1003.8 1134.97,1003.83C1133.41,1003.83 1131.88,1003.86 1130.36,1003.9C1130.34,1003.9 1130.32,1003.91 1130.3,1003.91C1130.26,1003.91 1130.23,1003.9 1130.19,1003.91C1118.14,1004.26 1107.54,1005.97 1099.36,1008.68C1092.57,1010.91 1087.67,1013.77 1084.5,1016.61C1096.48,1018.41 1107.72,1021.96 1117.74,1027.08C1132.52,1034.64 1144.82,1045.56 1152.52,1059.29C1157.64,1068.42 1160.62,1078.84 1160.61,1089.74C1160.62,1100.64 1157.64,1111.07 1152.52,1120.2C1147.4,1129.35 1140.19,1137.26 1131.61,1143.75C1117.01,1154.76 1098.37,1161.77 1077.88,1163.66C1077.88,1163.99 1077.92,1164.3 1077.92,1164.64C1077.92,1167.24 1077.64,1170.08 1077.05,1173.04C1077.62,1173.89 1078.37,1174.81 1079.45,1175.85C1083.39,1179.68 1092.4,1184.94 1110.19,1188.43C1137.26,1193.8 1168.35,1206.54 1197.24,1227.31C1226.08,1248.07 1252.71,1277.03 1269.41,1314.75C1277.76,1333.58 1283.57,1354.56 1285.96,1377.55C1287.11,1376.82 1288.26,1376.09 1289.45,1375.28C1302.21,1366.61 1317.22,1353.13 1326.96,1334.28C1333.47,1321.67 1337.82,1306.68 1337.84,1288.18C1337.84,1282.15 1341.49,1276.74 1347.07,1274.47C1352.66,1272.21 1359.05,1273.56 1363.24,1277.88C1363.6,1278.3 1371.66,1286.54 1380.38,1299.05C1381.84,1288.11 1382.89,1275.57 1382.89,1262.08C1382.9,1235.75 1378.88,1206.01 1366.55,1177.71Z" style="fill:rgb(172,160,145);fill-rule:nonzero;"/>
            <path d="M1287.34,1410.75C1281.64,1413.58 1277.92,1414.97 1277.5,1415.14C1272.95,1416.82 1267.9,1416.17 1263.93,1413.39C1259.95,1410.63 1257.6,1406.11 1257.6,1401.27C1257.56,1358.63 1244.76,1324.41 1225.49,1296.94C1206.23,1269.52 1180.23,1249.01 1154.17,1235.41C1136.81,1226.35 1119.45,1220.39 1104.46,1217.44C1088.55,1214.29 1076.53,1209.72 1067.29,1203.73C1065,1202.25 1062.88,1200.66 1060.95,1198.98C1060.75,1199.15 1060.57,1199.32 1060.37,1199.48L1060.37,1528.52C1060.46,1528.55 1060.56,1528.58 1060.66,1528.61C1072.15,1524.86 1082.72,1518.58 1092.26,1510.8C1102.9,1502.12 1112.18,1491.63 1119.73,1481.41C1134.85,1461.02 1143.02,1441.84 1143.25,1441.27C1145.84,1435 1152.42,1431.29 1159.13,1432.31C1165.84,1433.33 1171.02,1438.83 1171.64,1445.59C1172.44,1454.51 1172.7,1464.54 1172.71,1474.48C1172.71,1483.91 1172.46,1493.23 1172.16,1501.2C1176.57,1498.71 1180.78,1495.74 1184.78,1492.31C1194,1484.41 1201.96,1474.26 1208.32,1464.11C1221.11,1443.85 1227.43,1423.82 1227.57,1423.3C1229.35,1417.45 1234.55,1413.29 1240.64,1412.84C1246.75,1412.4 1252.49,1415.75 1255.1,1421.29C1257.61,1426.66 1259.23,1432.32 1260.59,1438.09C1261.5,1442.06 1262.2,1446 1262.82,1449.84C1265.96,1447.08 1268.88,1444.18 1271.42,1441.07C1278.03,1432.96 1282.7,1423.79 1285.91,1414.97C1286.43,1413.55 1286.9,1412.14 1287.34,1410.75Z" style="fill:rgb(141,134,127);fill-rule:nonzero;"/>
            <path d="M1100.91,1102.63C1091.44,1108.1 1080.68,1107.2 1076.89,1100.62C1073.09,1094.04 1077.68,1084.28 1087.14,1078.81C1096.61,1073.35 1107.36,1074.25 1111.16,1080.83C1114.96,1087.4 1110.37,1097.17 1100.91,1102.63ZM1044.62,1100.62C1040.82,1107.2 1030.06,1108.1 1020.6,1102.63C1011.14,1097.17 1006.54,1087.4 1010.34,1080.83C1014.14,1074.25 1024.89,1073.35 1034.36,1078.81C1043.82,1084.28 1048.42,1094.04 1044.62,1100.62ZM1113.78,1059.32C1102.39,1050.68 1085.66,1044.81 1066.88,1044.84L1054.45,1044.84C1040.36,1044.83 1027.42,1048.1 1017.04,1053.42C1006.62,1058.72 998.891,1066.03 994.613,1073.73C991.742,1078.88 990.301,1084.16 990.289,1089.74C990.301,1095.33 991.742,1100.61 994.613,1105.76C997.48,1110.89 1001.84,1115.85 1007.54,1120.16C1018.93,1128.81 1035.67,1134.67 1054.45,1134.65L1066.88,1134.65C1080.96,1134.65 1093.9,1131.39 1104.29,1126.07C1114.7,1120.76 1122.43,1113.45 1126.71,1105.76C1129.58,1100.61 1131.02,1095.33 1131.03,1089.74C1131.02,1084.16 1129.58,1078.88 1126.71,1073.73C1123.84,1068.59 1119.49,1063.64 1113.78,1059.32Z" style="fill:rgb(44,48,50);fill-rule:nonzero;"/>
            <path d="M1034.36,1078.81C1024.89,1073.35 1014.14,1074.25 1010.34,1080.83C1006.54,1087.4 1011.14,1097.17 1020.6,1102.63C1030.06,1108.1 1040.82,1107.2 1044.62,1100.62C1048.42,1094.04 1043.82,1084.28 1034.36,1078.81Z" style="fill-rule:nonzero;"/>
            <path d="M1087.14,1078.81C1077.68,1084.28 1073.09,1094.04 1076.89,1100.62C1080.68,1107.2 1091.44,1108.1 1100.91,1102.63C1110.37,1097.17 1114.96,1087.4 1111.16,1080.83C1107.36,1074.25 1096.61,1073.35 1087.14,1078.81Z" style="fill-rule:nonzero;"/>
            <path d="M856.82,889.402C863.875,889.402 869.598,895.121 869.598,902.176C869.598,909.234 863.875,914.957 856.82,914.957C849.762,914.957 844.047,909.234 844.047,902.176C844.047,895.121 849.762,889.402 856.82,889.402ZM881.34,925.23C881.34,929.164 878.152,932.348 874.219,932.348C870.285,932.348 867.098,929.164 867.098,925.23C867.098,921.293 870.285,918.109 874.219,918.109C878.152,918.109 881.34,921.293 881.34,925.23ZM863.129,940.637C871.16,940.629 878.297,937.422 883.578,932.164C888.836,926.883 892.047,919.746 892.051,911.711C892.047,903.676 888.836,896.539 883.578,891.262C878.297,886 871.16,882.797 863.129,882.789C855.094,882.797 847.957,886 842.672,891.262C837.418,896.539 834.211,903.676 834.203,911.711C834.211,919.746 837.418,926.883 842.672,932.164C847.957,937.422 855.094,940.629 863.129,940.637Z" style="fill-rule:nonzero;"/>
            <path d="M1269.14,932.348C1265.21,932.348 1262.02,929.164 1262.02,925.23C1262.02,921.293 1265.21,918.109 1269.14,918.109C1273.07,918.109 1276.26,921.293 1276.26,925.23C1276.26,929.164 1273.07,932.348 1269.14,932.348ZM1251.74,914.957C1244.68,914.957 1238.96,909.234 1238.96,902.176C1238.96,895.121 1244.68,889.402 1251.74,889.402C1258.8,889.402 1264.52,895.121 1264.52,902.176C1264.52,909.234 1258.8,914.957 1251.74,914.957ZM1258.2,882.789C1250.16,882.797 1243.02,886 1237.74,891.262C1232.48,896.539 1229.28,903.676 1229.27,911.711C1229.28,919.746 1232.48,926.883 1237.74,932.164C1243.02,937.422 1250.16,940.629 1258.2,940.637C1266.22,940.629 1273.36,937.422 1278.64,932.164C1283.9,926.883 1287.11,919.746 1287.12,911.711C1287.11,903.676 1283.9,896.539 1278.64,891.262C1273.36,886 1266.22,882.797 1258.2,882.789Z" style="fill-rule:nonzero;"/>
            <path d="M856.82,914.957C863.875,914.957 869.598,909.234 869.598,902.176C869.598,895.121 863.875,889.402 856.82,889.402C849.762,889.402 844.047,895.121 844.047,902.176C844.047,909.234 849.762,914.957 856.82,914.957Z" style="fill:white;fill-rule:nonzero;"/>
            <path d="M867.098,925.23C867.098,929.164 870.285,932.348 874.219,932.348C878.152,932.348 881.34,929.164 881.34,925.23C881.34,921.293 878.152,918.109 874.219,918.109C870.285,918.109 867.098,921.293 867.098,925.23Z" style="fill:white;fill-rule:nonzero;"/>
            <path d="M1251.74,889.402C1244.68,889.402 1238.96,895.121 1238.96,902.176C1238.96,909.234 1244.68,914.957 1251.74,914.957C1258.8,914.957 1264.52,909.234 1264.52,902.176C1264.52,895.121 1258.8,889.402 1251.74,889.402Z" style="fill:white;fill-rule:nonzero;"/>
            <path d="M1269.14,918.109C1265.21,918.109 1262.02,921.293 1262.02,925.23C1262.02,929.164 1265.21,932.348 1269.14,932.348C1273.07,932.348 1276.26,929.164 1276.26,925.23C1276.26,921.293 1273.07,918.109 1269.14,918.109Z" style="fill:white;fill-rule:nonzero;"/>
            <path d="M694.797,917.535C694.801,917.535 694.809,917.527 694.813,917.527C694.832,917.52 694.844,917.516 694.867,917.508L694.797,917.535Z" style="fill-rule:nonzero;"/>
            <path d="M842.672,891.262C847.957,886 855.094,882.797 863.129,882.789C871.16,882.797 878.297,886 883.578,891.262C888.836,896.539 892.047,903.676 892.051,911.711C892.047,919.746 888.836,926.883 883.578,932.164C878.297,937.422 871.16,940.629 863.129,940.637C855.094,940.629 847.957,937.422 842.672,932.164C837.418,926.883 834.211,919.746 834.203,911.711C834.211,903.676 837.418,896.539 842.672,891.262ZM863.129,970.215C895.441,970.199 921.617,944.027 921.625,911.711C921.617,879.398 895.441,853.227 863.129,853.211C830.816,853.223 804.641,879.398 804.629,911.711C804.637,944.027 830.816,970.199 863.129,970.215Z" style="fill-rule:nonzero;"/>
            <path d="M1477.5,663.93L1477.5,663.926L1477.5,663.93ZM555.336,818.719C549.324,811.598 544.504,803.922 541.172,795.598C537.844,787.258 535.957,778.266 535.949,768.148C535.949,765.48 536.086,762.727 536.363,759.891C537.965,743.824 541.988,731.91 547.18,722.875C555.004,709.391 565.508,701.75 577.434,696.871C589.305,692.059 602.547,690.527 613.613,690.547C620.68,690.547 626.84,691.141 631.129,691.73C633.273,692.027 634.953,692.316 636.051,692.523L637.242,692.758L637.477,692.809L637.477,692.813L637.82,692.887C638.531,693.027 646.922,694.738 659.359,694.746C672.328,694.723 689.84,692.922 707.492,684.773C716.297,680.699 725.102,674.992 733.051,667.191C741.004,659.406 748.051,649.547 753.469,637.508C758.316,626.766 764.137,618.809 770.324,612.691C779.594,603.551 789.871,598.426 799.402,595.492C808.906,592.57 817.586,591.961 822.797,591.969C824.559,591.969 825.914,592.035 826.77,592.094L827.664,592.164L827.801,592.18L827.801,592.176C828.789,592.297 829.625,592.316 830.613,592.246C830.652,592.246 831.133,592.219 831.961,592.219C834.453,592.219 840.113,592.473 846.918,594.211C852.035,595.512 857.781,597.625 863.477,601.008C872.016,606.125 880.527,613.887 887.352,627.113C892.859,637.852 897.172,652.508 898.629,672.328C859.559,674.031 812.699,685.699 764.344,718.332C758.938,721.977 756.563,728.68 758.465,734.918C760.371,741.152 766.086,745.387 772.609,745.387L773.105,745.387C775.793,745.402 788.992,745.586 803.492,747.07C803.758,747.094 804.027,747.133 804.293,747.16C791.105,754.77 775.313,764.902 758.375,777.918C728.027,801.238 693.969,833.965 664.996,877.91C651.613,874.492 626.191,866.938 601.598,853.949C584.172,844.793 567.316,832.949 555.336,818.719ZM1131.03,1089.74C1131.02,1095.33 1129.58,1100.61 1126.71,1105.76C1122.43,1113.45 1114.7,1120.76 1104.29,1126.07C1093.9,1131.39 1080.96,1134.65 1066.88,1134.65L1054.45,1134.65C1035.67,1134.67 1018.93,1128.81 1007.54,1120.16C1001.84,1115.85 997.48,1110.89 994.613,1105.76C991.742,1100.61 990.301,1095.33 990.289,1089.74C990.301,1084.16 991.742,1078.88 994.613,1073.73C998.891,1066.03 1006.62,1058.72 1017.04,1053.42C1027.42,1048.1 1040.36,1044.83 1054.45,1044.84L1066.88,1044.84C1085.66,1044.81 1102.39,1050.68 1113.78,1059.32C1119.49,1063.64 1123.84,1068.59 1126.71,1073.73C1129.58,1078.88 1131.02,1084.16 1131.03,1089.74ZM774.246,1274.47C768.664,1272.21 762.273,1273.56 758.078,1277.88C757.742,1278.24 750.352,1285.86 742.09,1297.41C741.711,1297.95 741.324,1298.53 740.941,1299.08C739.473,1288.14 738.418,1275.57 738.43,1262.07C738.418,1235.75 742.438,1206.01 754.766,1177.73C756.289,1174.59 771.133,1144.71 795.695,1111.44C807.984,1094.78 822.707,1077.28 839.238,1061.88C855.766,1046.46 874.098,1033.19 893.414,1024.65C925.121,1010.59 958.926,1003.8 986.355,1003.83C1005.07,1003.77 1020.75,1007.1 1030.13,1012.08C1032.92,1013.53 1035.06,1015.06 1036.76,1016.59C1018.9,1019.27 1002.71,1025.93 989.703,1035.74C981.125,1042.23 973.922,1050.14 968.801,1059.29C963.68,1068.42 960.703,1078.84 960.715,1089.74C960.703,1100.64 963.68,1111.07 968.801,1120.2C976.504,1133.93 988.797,1144.85 1003.58,1152.41C1016.06,1158.78 1030.41,1162.76 1045.75,1163.88C1045.68,1164.86 1045.59,1165.82 1045.59,1166.87C1045.59,1168.54 1045.73,1170.31 1045.96,1172.11C1044.75,1173.88 1042.83,1175.89 1039.49,1178.18C1034.23,1181.73 1025.3,1185.64 1011.13,1188.43C993.066,1192 973.27,1198.87 953.477,1209.19C923.82,1224.68 894.129,1247.97 871.637,1279.93C852.895,1306.52 839.367,1339.25 835.391,1377.58C829.926,1374.11 823.816,1369.7 817.801,1364.23C808.98,1356.25 800.402,1346.14 794.059,1333.68C787.723,1321.2 783.5,1306.39 783.484,1288.18C783.484,1282.15 779.832,1276.74 774.246,1274.47ZM779.309,1298.48M1380.38,1299.05C1371.66,1286.54 1363.6,1278.3 1363.24,1277.88C1359.05,1273.56 1352.66,1272.21 1347.07,1274.47C1341.49,1276.74 1337.84,1282.15 1337.84,1288.18C1337.82,1306.68 1333.47,1321.67 1326.96,1334.28C1317.22,1353.13 1302.21,1366.61 1289.45,1375.28C1288.26,1376.09 1287.11,1376.82 1285.96,1377.55C1283.57,1354.56 1277.76,1333.58 1269.41,1314.75C1252.71,1277.03 1226.08,1248.07 1197.24,1227.31C1168.35,1206.54 1137.26,1193.8 1110.19,1188.43C1092.4,1184.94 1083.39,1179.68 1079.45,1175.85C1078.37,1174.81 1077.62,1173.89 1077.05,1173.04C1077.64,1170.08 1077.92,1167.24 1077.92,1164.64C1077.92,1164.3 1077.88,1163.99 1077.88,1163.66C1098.37,1161.77 1117.01,1154.76 1131.61,1143.75C1140.19,1137.26 1147.4,1129.35 1152.52,1120.2C1157.64,1111.07 1160.62,1100.64 1160.61,1089.74C1160.62,1078.84 1157.64,1068.42 1152.52,1059.29C1144.82,1045.56 1132.52,1034.64 1117.74,1027.08C1107.72,1021.96 1096.48,1018.41 1084.5,1016.61C1087.67,1013.77 1092.57,1010.91 1099.36,1008.68C1107.54,1005.97 1118.14,1004.26 1130.19,1003.91C1130.23,1003.9 1130.26,1003.91 1130.3,1003.91C1130.32,1003.91 1130.34,1003.9 1130.36,1003.9C1131.88,1003.86 1133.41,1003.83 1134.97,1003.83C1162.39,1003.8 1196.2,1010.59 1227.91,1024.65C1247.85,1033.46 1266.73,1047.32 1283.67,1063.38C1309.11,1087.43 1330.08,1116.29 1344.5,1139.03C1351.72,1150.4 1357.31,1160.24 1361.08,1167.2C1362.96,1170.66 1364.39,1173.41 1365.33,1175.28C1365.8,1176.2 1366.15,1176.91 1366.38,1177.37L1366.55,1177.71C1378.88,1206.01 1382.9,1235.75 1382.89,1262.08C1382.89,1275.57 1381.84,1288.11 1380.38,1299.05ZM1262.82,1449.84C1262.2,1446 1261.5,1442.06 1260.59,1438.09C1259.23,1432.32 1257.61,1426.66 1255.1,1421.29C1252.49,1415.75 1246.75,1412.4 1240.64,1412.84C1234.55,1413.29 1229.35,1417.45 1227.57,1423.3C1227.43,1423.82 1221.11,1443.85 1208.32,1464.11C1201.96,1474.26 1194,1484.41 1184.78,1492.31C1180.78,1495.74 1176.57,1498.71 1172.16,1501.2C1172.46,1493.23 1172.71,1483.91 1172.71,1474.48C1172.7,1464.54 1172.44,1454.51 1171.64,1445.59C1171.02,1438.83 1165.84,1433.33 1159.13,1432.31C1152.42,1431.29 1145.84,1435 1143.25,1441.27C1143.02,1441.84 1134.85,1461.02 1119.73,1481.41C1112.18,1491.63 1102.9,1502.12 1092.26,1510.8C1082.72,1518.58 1072.15,1524.86 1060.66,1528.61C1060.56,1528.58 1060.46,1528.55 1060.37,1528.52C1048.79,1524.7 1038.14,1518.29 1028.56,1510.38C1012.38,1497.08 999.48,1479.6 990.875,1465.5C986.566,1458.45 983.305,1452.27 981.156,1447.91C980.082,1445.73 979.289,1444.01 978.77,1442.86L978.211,1441.59L978.09,1441.31L978.074,1441.27L978.078,1441.27C975.477,1435 968.898,1431.29 962.188,1432.31C955.477,1433.33 950.297,1438.83 949.684,1445.59C948.879,1454.51 948.617,1464.54 948.613,1474.48C948.613,1483.91 948.859,1493.23 949.164,1501.2C944.586,1498.63 940.234,1495.52 936.102,1491.93C922.094,1479.8 911.133,1462.44 904.055,1448.14C900.5,1441 897.875,1434.65 896.168,1430.16C895.316,1427.91 894.691,1426.13 894.289,1424.94L893.855,1423.63L893.766,1423.34L893.754,1423.3L893.75,1423.29C891.969,1417.44 886.777,1413.29 880.68,1412.84C874.582,1412.4 868.832,1415.75 866.227,1421.29C863.715,1426.66 862.094,1432.32 860.738,1438.09C859.82,1442.08 859.082,1446.09 858.465,1449.94C855.035,1446.93 851.984,1443.7 849.273,1440.29C841.941,1431.07 837.105,1420.49 833.984,1410.73C839.664,1413.57 843.402,1414.98 843.824,1415.14C848.367,1416.82 853.418,1416.17 857.395,1413.39C861.371,1410.63 863.727,1406.11 863.727,1401.27C863.734,1372.82 869.465,1348.17 878.953,1326.72C893.176,1294.59 916.043,1269.54 941.359,1251.31C966.613,1233.09 994.348,1221.86 1016.86,1217.44C1036.44,1213.56 1050.46,1207.49 1060.37,1199.48C1060.57,1199.32 1060.75,1199.15 1060.95,1198.98C1062.88,1200.66 1065,1202.25 1067.29,1203.73C1076.53,1209.72 1088.55,1214.29 1104.46,1217.44C1119.45,1220.39 1136.81,1226.35 1154.17,1235.41C1180.23,1249.01 1206.23,1269.52 1225.49,1296.94C1244.76,1324.41 1257.56,1358.63 1257.6,1401.27C1257.6,1406.11 1259.95,1410.63 1263.93,1413.39C1267.9,1416.17 1272.95,1416.82 1277.5,1415.14C1277.92,1414.97 1281.64,1413.58 1287.34,1410.75C1286.9,1412.14 1286.43,1413.55 1285.91,1414.97C1282.7,1423.79 1278.03,1432.96 1271.42,1441.07C1268.88,1444.18 1265.96,1447.08 1262.82,1449.84ZM1438.33,922.328C1435.46,921.121 1432.97,920.086 1431.03,919.293C1430.06,918.898 1429.23,918.563 1428.52,918.277C1427.77,917.988 1427.32,917.801 1426.45,917.504L1426.5,917.523C1425.46,917.195 1424.04,916.742 1421.6,916.715C1420.12,916.715 1418.2,916.926 1416.04,917.781C1414.44,918.414 1412.75,919.441 1411.36,920.754C1409.25,922.727 1407.95,925.168 1407.36,927.086C1406.73,929.047 1406.64,930.555 1406.63,931.727C1406.68,934.41 1407.13,935.578 1407.39,936.559C1407.98,938.328 1408.41,939.121 1408.84,940.023C1409.64,941.605 1410.49,943.086 1411.56,944.973C1415.22,951.43 1421.45,962.273 1428.45,978.191C1432.23,986.816 1436.21,996.938 1440.04,1008.47C1432.82,1004.89 1425.17,1001.18 1417.89,997.879C1409.88,994.27 1402.52,991.18 1396.18,989.184C1391.1,987.594 1385.52,988.875 1381.64,992.531C1377.76,996.184 1376.13,1001.67 1377.41,1006.84L1377.43,1006.89C1377.8,1008.32 1385.78,1042.09 1385.76,1080.88C1385.76,1095.38 1384.64,1110.55 1381.75,1124.89C1380.86,1129.34 1379.73,1133.66 1378.47,1137.91C1371.73,1126.46 1362.83,1112.36 1351.93,1097.3C1338.75,1079.12 1322.71,1059.61 1304,1041.89C1285.3,1024.2 1263.93,1008.27 1239.88,997.605C1207.75,983.418 1174.33,975.895 1144.47,974.539C1145.39,957.836 1149.17,928.766 1162.37,903.02C1170.51,887.023 1181.98,872.367 1198.43,861.582C1214.9,850.82 1236.64,843.555 1266.9,843.516C1289.8,843.512 1317.52,847.793 1350.81,858.227C1358.61,860.668 1366.91,856.328 1369.35,848.535C1371.79,840.738 1367.45,832.441 1359.66,830.008C1324.11,818.875 1293.48,813.941 1266.9,813.938C1231.85,813.898 1203.75,822.684 1182.21,836.848C1166.05,847.434 1153.68,860.875 1144.37,875.133C1130.39,896.551 1123.1,919.734 1119.14,939.535C1116.3,953.844 1115.22,966.383 1114.84,975.402C1100.95,976.984 1088.32,980.285 1077.53,985.852C1071.15,989.172 1065.41,993.441 1060.71,998.762C1060.6,998.641 1060.48,998.527 1060.37,998.406C1052.79,989.977 1042.59,984.379 1031.24,980.602C1023.61,978.094 1015.27,976.457 1006.47,975.445C1005.68,956.715 1001.99,922.609 985.32,889.605C975.422,870.117 960.68,850.977 939.109,836.848C917.566,822.684 889.469,813.898 854.422,813.938C827.84,813.941 797.203,818.875 761.664,830.008C753.871,832.441 749.531,840.738 751.973,848.535C754.414,856.328 762.711,860.668 770.504,858.23C803.797,847.793 831.527,843.512 854.422,843.516C884.68,843.555 906.418,850.82 922.895,861.582C935.25,869.684 944.746,879.926 952.199,891.313C963.371,908.359 969.746,928.043 973.168,945.305C975.43,956.664 976.414,966.879 976.828,974.539C946.98,975.898 913.563,983.422 881.441,997.605C857.395,1008.27 836.02,1024.2 817.313,1041.89C789.277,1068.46 767.152,1099.09 751.848,1123.18C748.508,1128.45 745.516,1133.38 742.848,1137.91C741.598,1133.66 740.461,1129.34 739.566,1124.89C736.672,1110.55 735.563,1095.38 735.566,1080.88C735.563,1060.87 737.664,1042.17 739.777,1028.58C740.828,1021.79 741.883,1016.27 742.66,1012.49C743.051,1010.61 743.371,1009.15 743.59,1008.19L743.836,1007.13L743.895,1006.89L743.902,1006.84C745.184,1001.67 743.566,996.184 739.684,992.531C735.801,988.875 730.227,987.594 725.137,989.184C718.801,991.18 711.441,994.27 703.434,997.879C696.184,1001.16 688.492,1004.88 681.285,1008.46C686.926,991.438 692.91,977.563 698.105,966.863C702.191,958.449 705.777,952.004 708.426,947.328C709.754,944.973 710.844,943.098 711.762,941.398C712.223,940.531 712.645,939.734 713.125,938.66C713.367,938.109 713.625,937.5 713.926,936.559C714.195,935.578 714.641,934.41 714.691,931.727C714.688,930.684 714.602,929.379 714.148,927.715C713.813,926.477 713.246,925.035 712.301,923.57C710.922,921.348 708.531,919.234 706.078,918.129C703.625,916.984 701.375,916.715 699.719,916.715C697.293,916.742 695.871,917.191 694.813,917.527C693.988,917.813 693.523,917.992 692.797,918.277C690.207,919.309 685.492,921.27 679.625,923.742C676.648,924.992 673.395,926.371 670.047,927.789C700.012,869.715 740.805,828.73 776.402,801.363C797.473,785.164 816.668,773.762 830.48,766.465C837.391,762.82 842.949,760.195 846.727,758.504C848.613,757.664 850.055,757.051 850.996,756.668L852.02,756.246L852.238,756.164L852.254,756.156C857.629,754.105 861.301,749.168 861.727,743.434C862.152,737.699 859.242,732.273 854.23,729.449C846.68,725.266 838.344,722.941 829.559,721.074C827.332,720.617 825.082,720.211 822.82,719.828C854.574,706.141 883.965,701.676 909.199,701.645C934.172,701.641 955.035,706.086 969.516,710.48C976.758,712.68 982.398,714.863 986.145,716.457C988.02,717.25 989.418,717.898 990.305,718.324L991.25,718.785L991.43,718.879L991.441,718.883L991.441,718.879C996.227,721.406 1001.97,721.129 1006.48,718.148C1011.01,715.156 1013.53,709.969 1013.07,704.559L1010.91,678.906L1045.3,723.918C1048.94,728.672 1054.89,730.578 1060.37,729.32C1060.46,729.301 1060.56,729.301 1060.66,729.277C1066.22,730.668 1072.32,728.758 1076.02,723.918L1110.42,678.906L1108.25,704.559C1107.79,709.969 1110.31,715.156 1114.83,718.148C1119.35,721.129 1125.09,721.406 1129.88,718.879L1129.88,718.883L1130.22,718.711C1133.87,716.863 1166.05,701.605 1212.12,701.645C1237.39,701.676 1266.85,706.156 1298.66,719.902C1296.35,720.285 1294.04,720.602 1291.77,721.074C1282.98,722.941 1274.64,725.266 1267.09,729.449C1262.08,732.273 1259.17,737.699 1259.59,743.434C1260.02,749.168 1263.69,754.105 1269.07,756.156L1269.08,756.164C1270.32,756.633 1305.2,770.406 1346.9,802.898C1382.03,830.258 1421.87,870.789 1451.28,927.793C1446.63,925.816 1442.13,923.922 1438.33,922.328ZM1579.99,795.992C1574.01,810.727 1563.2,823.566 1549.69,834.512C1529.48,850.941 1503.48,862.66 1482.65,869.934C1472.24,873.586 1463.14,876.164 1456.7,877.816C1456.57,877.852 1456.45,877.875 1456.32,877.91C1427.35,833.965 1393.29,801.238 1362.95,777.918C1346.02,764.914 1330.24,754.785 1317.05,747.176C1322.14,746.641 1327.14,746.234 1331.56,745.977C1336.6,745.68 1340.94,745.535 1344,745.457C1345.53,745.422 1346.73,745.402 1347.54,745.391L1348.45,745.387L1348.71,745.387C1355.24,745.387 1360.95,741.152 1362.86,734.918C1364.76,728.68 1362.39,721.977 1356.98,718.332C1308.62,685.695 1261.75,674.027 1222.67,672.328C1223.93,655.203 1227.32,641.934 1231.77,631.746C1236.02,622.047 1241.17,615.004 1246.63,609.645C1254.78,601.645 1263.81,597.324 1271.79,594.934C1279.75,592.551 1286.55,592.215 1289.36,592.219L1290.53,592.242L1290.71,592.246C1291.7,592.316 1292.53,592.297 1293.52,592.176L1293.52,592.18C1293.59,592.168 1295.44,591.969 1298.52,591.969C1305.49,591.945 1318.55,593.066 1331.64,599.219C1338.2,602.301 1344.8,606.586 1351,612.695C1357.19,618.809 1363,626.766 1367.86,637.508C1373.27,649.543 1380.32,659.406 1388.27,667.191C1400.21,678.906 1414,685.84 1426.97,689.77C1439.97,693.699 1452.22,694.738 1461.96,694.746C1474.39,694.738 1482.79,693.027 1483.5,692.887L1483.84,692.813L1483.84,692.809C1484.46,692.668 1494.47,690.531 1507.71,690.547C1515.08,690.543 1523.44,691.199 1531.69,693.086C1544.13,695.941 1556.06,701.387 1565.47,711.23C1574.84,721.109 1582.5,735.762 1584.96,759.891C1585.23,762.727 1585.37,765.48 1585.37,768.148C1585.36,778.426 1583.42,787.547 1579.99,795.992ZM1614.38,756.973C1612.46,737.465 1607.34,721.262 1599.77,708.125C1588.45,688.344 1571.68,676.117 1554.95,669.441C1538.16,662.699 1521.34,660.988 1507.71,660.969C1491.32,660.984 1479.54,663.477 1477.55,663.918C1477.38,663.957 1471.03,665.172 1461.96,665.168C1451.84,665.191 1438.44,663.613 1426.26,657.938C1420.15,655.102 1414.3,651.293 1408.98,646.074C1403.66,640.848 1398.81,634.203 1394.82,625.359C1388.56,611.465 1380.58,600.32 1371.78,591.648C1358.58,578.602 1343.72,571.23 1330.59,567.215C1317.43,563.191 1305.92,562.398 1298.52,562.391C1295.21,562.391 1292.82,562.551 1291.37,562.68C1290.82,562.66 1290.16,562.645 1289.36,562.645C1284.99,562.648 1276.97,563.051 1267.11,565.547C1259.72,567.43 1251.3,570.508 1242.75,575.574C1229.94,583.133 1216.97,595.367 1207.65,613.617C1199.76,629.004 1194.48,648.5 1193.01,672.863C1171.06,674.609 1152.91,679.039 1139.73,683.289L1144.15,630.941C1144.71,624.398 1140.87,618.262 1134.75,615.898C1128.62,613.535 1121.66,615.496 1117.67,620.711L1060.66,695.309L1003.65,620.711C999.668,615.496 992.703,613.535 986.578,615.898C980.453,618.262 976.617,624.398 977.168,630.941L981.59,683.289C968.41,679.039 950.262,674.609 928.313,672.863C927.035,651.707 922.902,634.223 916.652,619.906C910.969,606.883 903.555,596.516 895.41,588.535C883.184,576.535 869.523,570.027 857.988,566.59C846.422,563.148 836.875,562.656 831.961,562.645C831.152,562.645 830.5,562.66 829.949,562.68C828.496,562.551 826.105,562.391 822.797,562.391C812.957,562.41 795.723,563.781 777.152,572.438C767.891,576.766 758.336,582.961 749.543,591.648C740.746,600.32 732.762,611.465 726.508,625.359C722.512,634.203 717.664,640.848 712.344,646.074C704.371,653.879 695.16,658.602 685.766,661.461C676.402,664.313 666.945,665.18 659.359,665.168C654.52,665.168 650.453,664.828 647.691,664.496C646.313,664.332 645.254,664.176 644.59,664.063L643.891,663.938L643.773,663.918C641.785,663.477 630,660.984 613.613,660.969C604.52,660.973 594.027,661.754 583.055,664.254C566.656,667.98 548.879,675.727 534.477,690.785C520.039,705.801 509.77,727.742 506.934,756.973C506.559,760.766 506.375,764.492 506.375,768.148C506.363,782.238 509.129,795.348 513.938,807.141C522.37,827.832 536.793,844.34 553.008,857.488C577.398,877.207 606.117,889.82 628.875,897.84C636.383,900.473 643.227,902.582 649.074,904.242C641.051,918.75 633.617,934.254 627.063,950.91C624.871,956.48 626.23,962.777 630.523,966.941C634.816,971.102 641.148,972.27 646.645,969.918C646.656,969.914 650.066,968.457 655.258,966.234C658.926,964.664 663.492,962.719 668.348,960.648C667.633,962.207 666.914,963.766 666.184,965.418C658.48,982.836 650.051,1005.66 643.395,1033.82C642.051,1039.51 644.148,1045.4 648.785,1048.96C653.422,1052.52 659.652,1053.02 664.797,1050.25C664.797,1050.25 665.555,1049.84 666.961,1049.09C671.883,1046.47 684.598,1039.77 698.215,1033.08C702.156,1031.14 706.137,1029.24 710.051,1027.41C707.953,1041.74 706.008,1060.45 705.992,1080.88C705.996,1096.87 707.188,1113.9 710.578,1130.73C713.484,1145.13 718.02,1159.43 724.957,1172.68C712.781,1203.6 708.859,1234.8 708.852,1262.07C708.887,1311.57 721.336,1348.49 721.625,1349.43C723.773,1355.83 729.941,1359.95 736.668,1359.47C743.395,1359 748.934,1354.07 750.172,1347.45C751.109,1342.38 753.293,1336.54 756.199,1330.82C757.117,1329.01 758.129,1327.22 759.16,1325.45C761.523,1333.52 764.543,1341.03 768.105,1347.89C776.738,1364.52 788.098,1377.4 799.316,1387.31C799.953,1394.98 801.742,1408.06 806.867,1422.95C810.836,1434.4 816.832,1446.96 826.09,1458.66C835.328,1470.34 847.934,1481.11 864.422,1488.48C868.84,1490.46 873.98,1490.14 878.125,1487.64C882.273,1485.13 884.934,1480.72 885.23,1475.89L885.246,1475.62C885.25,1475.57 885.254,1475.46 885.262,1475.41C885.914,1476.52 886.566,1477.61 887.254,1478.73C894.75,1490.81 904.348,1503.48 916.68,1514.23C928.969,1524.96 944.227,1533.8 962.379,1537.16C966.895,1537.98 971.484,1536.7 974.91,1533.64C978.34,1530.59 980.137,1526.17 979.816,1521.59C979.816,1521.59 979.797,1521.25 979.75,1520.58C979.578,1517.9 979.102,1510.11 978.719,1500.14C987.094,1511.3 997.313,1522.95 1009.75,1533.21C1022.34,1543.59 1037.25,1552.52 1054.45,1557.62C1056.1,1558.34 1057.86,1558.76 1059.7,1558.84C1060.02,1558.87 1060.34,1558.88 1060.66,1558.88C1060.98,1558.88 1061.3,1558.87 1061.62,1558.84C1063.46,1558.76 1065.22,1558.34 1066.87,1557.61C1084.08,1552.52 1098.98,1543.59 1111.57,1533.21C1123.96,1522.97 1134.25,1511.37 1142.59,1500.23C1142.51,1502.59 1142.41,1504.85 1142.31,1506.92C1142.11,1511.36 1141.91,1515.04 1141.75,1517.61C1141.68,1518.89 1141.61,1519.9 1141.57,1520.58C1141.52,1521.25 1141.5,1521.59 1141.5,1521.59C1141.19,1526.17 1142.98,1530.59 1146.41,1533.64C1149.84,1536.7 1154.43,1537.98 1158.94,1537.16C1177.09,1533.8 1192.35,1524.96 1204.64,1514.24C1218.1,1502.47 1228.32,1488.46 1236.06,1475.39L1236.09,1475.75L1236.09,1475.89C1236.39,1480.72 1239.05,1485.13 1243.2,1487.64C1247.34,1490.14 1252.48,1490.46 1256.9,1488.48C1273.39,1481.11 1286,1470.34 1295.24,1458.65C1309.11,1441.08 1315.69,1421.7 1319.03,1406.73C1320.78,1398.78 1321.61,1392.09 1322,1387.38C1322.11,1387.28 1322.22,1387.19 1322.33,1387.09C1333.43,1377.23 1344.69,1364.34 1353.22,1347.89C1356.77,1341.05 1359.79,1333.57 1362.14,1325.52C1363.21,1327.37 1364.31,1329.2 1365.26,1331.09C1368.1,1336.72 1370.22,1342.45 1371.15,1347.45C1372.39,1354.07 1377.93,1359 1384.66,1359.47C1391.38,1359.95 1397.55,1355.83 1399.7,1349.43C1399.99,1348.49 1412.43,1311.57 1412.47,1262.08C1412.46,1234.8 1408.54,1203.6 1396.36,1172.68C1403.3,1159.43 1407.84,1145.13 1410.75,1130.73C1414.13,1113.9 1415.32,1096.87 1415.33,1080.88C1415.32,1060.45 1413.37,1041.74 1411.27,1027.41C1420.98,1031.95 1431.27,1037.09 1439.58,1041.37C1444.54,1043.91 1448.79,1046.14 1451.8,1047.73C1453.3,1048.52 1454.49,1049.15 1455.3,1049.59C1456.11,1050.02 1456.52,1050.25 1456.52,1050.25C1461.67,1053.02 1467.91,1052.52 1472.54,1048.96C1477.18,1045.4 1479.28,1039.51 1477.93,1033.82C1470.64,1003 1461.23,978.594 1452.98,960.652C1464.71,965.645 1474.65,969.91 1474.68,969.918C1480.17,972.27 1486.51,971.102 1490.79,966.941C1495.09,962.777 1496.45,956.48 1494.26,950.91C1487.7,934.258 1480.27,918.754 1472.25,904.25C1487.38,899.953 1509.31,892.59 1531.63,881.09C1551.56,870.777 1571.93,857.145 1587.84,838.672C1595.78,829.438 1602.58,818.945 1607.38,807.141C1612.19,795.348 1614.95,782.238 1614.95,768.148C1614.95,764.492 1614.76,760.766 1614.38,756.973Z" style="fill-rule:nonzero;"/>
            <path d="M1278.64,932.164C1273.36,937.422 1266.22,940.629 1258.2,940.637C1250.16,940.629 1243.02,937.422 1237.74,932.164C1232.48,926.883 1229.28,919.746 1229.27,911.711C1229.28,903.676 1232.48,896.539 1237.74,891.262C1243.02,886 1250.16,882.797 1258.2,882.789C1266.22,882.797 1273.36,886 1278.64,891.262C1283.9,896.539 1287.11,903.676 1287.12,911.711C1287.11,919.746 1283.9,926.883 1278.64,932.164ZM1258.2,853.211C1225.88,853.223 1199.71,879.398 1199.7,911.711C1199.71,944.027 1225.88,970.199 1258.2,970.215C1290.51,970.199 1316.68,944.027 1316.7,911.711C1316.68,879.398 1290.51,853.227 1258.2,853.211Z" style="fill-rule:nonzero;"/>
        </g>
    </g>
</svg>
