<?xml version="1.0" standalone="no"?>
<!DOCTYPE svg PUBLIC "-//W3C//DTD SVG 20010904//EN"
 "http://www.w3.org/TR/2001/REC-SVG-20010904/DTD/svg10.dtd">
<svg version="1.0" xmlns="http://www.w3.org/2000/svg"
 width="1024.000000pt" height="1024.000000pt" viewBox="0 0 1024.000000 1024.000000"
 preserveAspectRatio="xMidYMid meet">
<metadata>
Created by potrace 1.14, written by Peter Selinger 2001-2017
</metadata>
<g transform="translate(0.000000,1024.000000) scale(0.100000,-0.100000)"
fill="#000000" stroke="none">
<path d="M3150 9239 c-157 -42 -316 -155 -415 -293 -24 -34 -72 -120 -106
-191 -53 -110 -72 -140 -128 -196 -132 -131 -300 -174 -526 -133 -114 21 -287
21 -386 0 -298 -63 -488 -255 -576 -581 -24 -91 -27 -117 -27 -280 -1 -159 2
-189 22 -259 91 -313 320 -559 700 -750 89 -45 245 -109 295 -121 15 -4 29
-10 31 -14 3 -4 -17 -54 -43 -112 -65 -140 -121 -293 -121 -328 0 -41 39 -93
83 -110 36 -13 39 -13 133 33 75 36 95 42 91 29 -3 -10 -28 -83 -56 -163 -60
-172 -121 -400 -121 -453 0 -70 50 -127 110 -127 12 0 88 38 168 84 165 94
213 119 217 114 1 -2 -3 -59 -11 -128 -7 -69 -13 -204 -14 -302 0 -275 32
-486 107 -686 18 -51 31 -97 28 -102 -13 -22 -55 -181 -74 -285 -55 -294 -53
-627 5 -944 35 -190 52 -245 86 -278 44 -42 100 -39 143 8 21 24 35 50 39 80
4 24 20 71 35 104 l28 60 16 -55 c37 -125 123 -276 225 -393 58 -67 59 -69 70
-155 35 -261 155 -501 324 -649 64 -56 164 -113 197 -113 39 0 79 29 97 69
l17 39 56 -91 c73 -119 229 -279 326 -335 39 -22 102 -50 141 -62 66 -19 75
-20 107 -6 61 25 72 54 70 181 l-2 110 22 -29 c146 -194 284 -319 434 -393
132 -66 166 -67 284 -11 160 76 305 200 428 366 l46 62 3 -111 c3 -127 17
-159 76 -179 28 -9 46 -7 113 15 176 55 359 221 480 434 27 46 32 50 38 32 12
-38 55 -80 89 -87 40 -7 102 22 194 91 177 133 319 412 348 685 7 61 11 69 67
134 103 120 174 243 221 385 l23 66 22 -50 c12 -27 29 -77 37 -111 20 -80 58
-119 114 -119 82 0 113 63 159 325 67 378 50 791 -44 1119 l-33 114 24 52 c35
81 73 230 94 377 23 157 26 488 6 658 -7 58 -12 106 -10 108 3 5 76 -33 226
-119 75 -44 147 -79 158 -79 31 0 75 25 94 54 9 15 16 45 16 73 0 75 -77 353
-154 556 -14 37 -26 70 -26 72 0 3 37 -13 82 -36 104 -52 147 -55 190 -12 50
50 49 96 -5 233 -25 63 -64 155 -86 203 -28 60 -37 89 -28 92 115 39 238 90
346 146 357 184 582 427 672 724 33 108 38 356 10 491 -73 356 -272 573 -586
639 -107 23 -265 23 -395 0 -229 -39 -417 13 -539 151 -26 29 -71 106 -112
189 -103 211 -210 332 -367 413 -117 61 -210 82 -367 82 -147 0 -238 -19 -336
-71 -236 -126 -376 -373 -422 -744 l-12 -99 -92 -13 c-51 -6 -139 -25 -195
-42 -57 -16 -103 -29 -104 -28 -1 1 5 74 12 162 17 212 19 317 4 344 -14 27
-68 61 -95 61 -46 0 -84 -42 -225 -249 -247 -361 -279 -406 -290 -406 -9 0
-77 96 -318 450 -52 77 -106 152 -120 167 -48 52 -126 44 -166 -16 -20 -32
-21 -102 -1 -336 7 -96 12 -176 10 -178 -2 -2 -12 1 -22 6 -35 18 -183 53
-275 65 l-93 13 -12 104 c-26 222 -103 431 -207 562 -85 107 -212 190 -346
227 -103 29 -312 29 -420 0z m514 -2730 c38 -44 36 -106 -3 -148 -40 -43 -82
-42 -127 3 -47 47 -46 102 4 159 10 11 30 17 58 17 35 0 47 -5 68 -31z m2950
6 c13 -14 26 -37 29 -51 12 -65 -36 -134 -94 -134 -36 0 -85 42 -92 79 -8 40
9 97 36 116 35 24 94 19 121 -10z m-2856 -221 c43 -30 20 -104 -33 -104 -23 0
-55 32 -55 56 0 17 39 64 54 64 6 0 22 -7 34 -16z m2950 0 c15 -10 22 -25 22
-48 0 -39 -15 -56 -50 -56 -35 0 -50 17 -50 56 0 29 27 64 50 64 3 0 16 -7 28
-16z m-1970 -719 c79 -16 185 -62 184 -80 0 -5 -16 -13 -34 -18 -129 -32 -284
-120 -358 -204 -207 -236 -209 -554 -5 -780 102 -113 235 -186 398 -220 l87
-18 0 -33 c0 -63 -94 -120 -275 -167 -577 -149 -1051 -610 -1227 -1194 -32
-107 -68 -285 -68 -337 0 -33 -1 -34 -22 -23 -38 20 -158 140 -204 205 -94
131 -149 289 -160 463 -4 53 -13 108 -20 122 -18 36 -57 59 -100 59 -31 0 -45
-8 -81 -45 -24 -25 -60 -70 -80 -100 -20 -31 -38 -53 -40 -51 -3 3 -9 67 -14
143 -17 266 19 572 92 779 63 182 274 555 435 769 162 216 334 389 495 496
278 186 719 289 997 234z m1208 -14 c204 -42 408 -124 561 -225 284 -187 602
-593 842 -1075 102 -204 152 -401 171 -666 10 -147 9 -210 -6 -383 l-6 -63
-48 68 c-27 37 -55 75 -62 83 -47 57 -118 66 -166 22 -33 -31 -34 -36 -52
-204 -22 -220 -109 -391 -282 -553 l-83 -78 -7 29 c-3 16 -14 74 -23 129 -92
534 -408 983 -881 1251 -132 75 -234 116 -395 160 -140 38 -173 51 -226 91
-29 21 -33 30 -33 69 0 24 2 44 4 44 37 0 180 41 241 70 405 188 500 655 195
960 -84 84 -183 143 -307 180 -40 12 -73 24 -73 26 0 12 135 66 196 79 95 20
309 13 440 -14z m-777 -1634 c59 -43 117 -70 211 -97 272 -78 356 -114 510
-216 187 -124 323 -259 444 -444 150 -229 224 -457 246 -755 6 -88 16 -172 22
-187 12 -33 65 -68 102 -68 15 0 41 7 57 16 17 8 33 14 35 11 6 -6 -15 -66
-49 -134 -36 -74 -105 -161 -111 -142 -3 8 -14 53 -24 101 -24 105 -53 155
-99 175 -61 25 -133 -15 -149 -82 -10 -41 -67 -183 -106 -264 -70 -143 -180
-288 -265 -349 l-33 -23 0 227 c0 208 -2 231 -20 269 -15 30 -32 47 -60 60
-39 17 -41 17 -80 0 -36 -16 -45 -29 -85 -112 -25 -52 -45 -96 -45 -98 0 -2
-23 -43 -51 -92 -138 -240 -318 -420 -481 -482 -23 -8 -36 -5 -85 21 -198 105
-400 353 -522 638 -40 93 -77 130 -129 130 -45 0 -76 -20 -99 -63 -15 -27 -18
-68 -21 -264 -2 -131 -8 -233 -13 -233 -5 0 -40 30 -78 67 -116 115 -221 296
-297 512 -38 108 -65 141 -119 141 -81 0 -114 -45 -149 -202 l-23 -102 -48 64
c-26 36 -56 83 -67 105 -23 44 -59 145 -52 145 2 0 21 -9 41 -20 54 -29 87
-26 129 13 l37 33 13 171 c20 249 62 416 154 608 108 225 264 411 478 571 133
99 382 215 512 239 87 16 233 79 290 124 14 11 27 21 29 21 2 0 24 -15 50 -33z"/>
</g>
</svg>
